<?xml version="1.0" encoding="utf-8"?>
<!-- Generator: Adobe Illustrator 22.1.0, SVG Export Plug-In . SVG Version: 6.00 Build 0)  -->
<svg version="1.1" id="Layer_2" xmlns="http://www.w3.org/2000/svg" xmlns:xlink="http://www.w3.org/1999/xlink" x="0px" y="0px"
	 viewBox="0 0 16 16" enable-background="new 0 0 16 16" xml:space="preserve">
<path fill="#888888" d="M8,12.4c-0.2-0.1-0.3-0.2-0.4-0.3C5.5,10,3.3,7.9,1.2,5.8c-0.3-0.3-0.3-0.6,0-0.9C2,4,2.1,4,3,4.9
	C4.5,6.4,6.1,8,7.6,9.6c0.3,0.3,0.5,0.3,0.8,0c1.6-1.7,3.3-3.3,4.9-5c0.5-0.5,0.6-0.5,1.1,0c0.8,0.8,0.8,0.8,0,1.5
	c-2,2-3.9,3.9-5.9,5.9C8.4,12.2,8.2,12.3,8,12.4z"/>
<g>
</g>
<g>
</g>
<g>
</g>
<g>
</g>
<g>
</g>
<g>
</g>
<g>
</g>
<g>
</g>
<g>
</g>
<g>
</g>
<g>
</g>
<g>
</g>
<g>
</g>
<g>
</g>
<g>
</g>
</svg>
